<svg width="65" height="157" viewBox="0 0 65 157" fill="none" xmlns="http://www.w3.org/2000/svg">
<path d="M62.7107 154.086C64.1335 152.145 64.8442 149.844 64.8442 147.186L64.8442 9.81324C64.8442 7.15399 64.1335 4.85507 62.7107 2.91272C61.2864 0.970369 59.6025 -2.29124e-07 57.6558 -3.14216e-07C55.7095 -3.99291e-07 54.0256 0.970368 52.6025 2.91272L2.2905 71.5995C0.867763 73.544 0.155406 75.8429 0.155406 78.5C0.155406 81.1571 0.867763 83.4582 2.2905 85.3989L52.6028 154.086C54.0256 156.026 55.7095 157 57.6562 157C59.6025 157 61.2864 156.026 62.7107 154.086Z" fill="#EEEEEE"/>
</svg>
