<svg width="65" height="157" viewBox="0 0 65 157" fill="none" xmlns="http://www.w3.org/2000/svg">
<path d="M2.28928 2.91434C0.866543 4.85507 0.155764 7.15559 0.155763 9.81378L0.155762 147.187C0.155762 149.846 0.866541 152.145 2.28928 154.087C3.71359 156.03 5.39752 157 7.34419 157C9.29048 157 10.9744 156.03 12.3975 154.087L62.7095 85.4005C64.1322 83.456 64.8446 81.1571 64.8446 78.5C64.8446 75.8429 64.1322 73.5418 62.7095 71.6011L12.3971 2.91434C10.9744 0.974136 9.29048 1.0893e-07 7.3438 8.57165e-08C5.39752 6.25073e-08 3.7136 0.974136 2.28928 2.91434Z" fill="#FFD700"/>
</svg>
